HIERARCHY
ROOT pelvis
{
	OFFSET 0.003123 -0.351407 0.012037
	CHANNELS 6 Xposition Yposition Zposition Zrotation Yrotation Xrotation 
	JOINT left_hip
	{
		OFFSET 0.058189 -0.092763 -0.026001
		CHANNELS 3 Zrotation Yrotation Xrotation
		JOINT left_knee
		{
			OFFSET 0.054695 -0.378753 -0.009396
			CHANNELS 3 Zrotation Yrotation Xrotation
			JOINT left_ankle
			{
				OFFSET -0.043453 -0.403059 -0.031876
				CHANNELS 3 Zrotation Yrotation Xrotation
				JOINT left_foot
				{
					OFFSET 0.047257 -0.057997 0.118216
					CHANNELS 3 Zrotation Yrotation Xrotation
					End Site
					{
						OFFSET 0.000000 0.000000 0.000000
					}
				}
			}
		}
	}
	JOINT right_hip
	{
		OFFSET -0.063267 -0.103908 -0.021250
		CHANNELS 3 Zrotation Yrotation Xrotation
		JOINT right_knee
		{
			OFFSET -0.044210 -0.362380 -0.016824
			CHANNELS 3 Zrotation Yrotation Xrotation
			JOINT right_ankle
			{
				OFFSET 0.015417 -0.410728 -0.020192
				CHANNELS 3 Zrotation Yrotation Xrotation
				JOINT right_foot
				{
					OFFSET -0.038812 -0.058328 0.119049
					CHANNELS 3 Zrotation Yrotation Xrotation
					End Site
					{
						OFFSET 0.000000 0.000000 0.000000
					}
				}
			}
		}
	}
	JOINT spine_1
	{
		OFFSET -0.002763 0.109891 -0.027618
		CHANNELS 3 Zrotation Yrotation Xrotation
		JOINT spine_2
		{
			OFFSET 0.009448 0.131853 -0.005940
			CHANNELS 3 Zrotation Yrotation Xrotation
			JOINT spine_3
			{
				OFFSET -0.011330 0.052235 0.028447
				CHANNELS 3 Zrotation Yrotation Xrotation
				JOINT neck
				{
					OFFSET -0.012164 0.165167 -0.031615
					CHANNELS 3 Zrotation Yrotation Xrotation
					JOINT head
					{
						OFFSET 0.024783 0.160452 0.020737
						CHANNELS 3 Zrotation Yrotation Xrotation
						End Site
						{
							OFFSET 0.000000 0.000000 0.000000
						}
					}
				}
				JOINT left_collar
				{
					OFFSET 0.046364 0.084944 -0.007220
					CHANNELS 3 Zrotation Yrotation Xrotation
					JOINT left_shoulder
					{
						OFFSET 0.119239 0.057728 -0.015461
						CHANNELS 3 Zrotation Yrotation Xrotation
						JOINT left_elbow
						{
							OFFSET 0.254123 -0.072151 -0.042459
							CHANNELS 3 Zrotation Yrotation Xrotation
							JOINT left_wrist
							{
								OFFSET 0.251987 0.023221 -0.002472
								CHANNELS 3 Zrotation Yrotation Xrotation
								JOINT left_index_1
								{
									OFFSET 0.101902 -0.008688 0.019351
									CHANNELS 3 Zrotation Yrotation Xrotation
									JOINT left_index_2
									{
										OFFSET 0.030149 -0.011154 0.001151
										CHANNELS 3 Zrotation Yrotation Xrotation
										JOINT left_index_3
										{
											OFFSET 0.006504 -0.021577 -0.002433
											CHANNELS 3 Zrotation Yrotation Xrotation
											End Site
											{
												OFFSET 0.000000 0.000000 0.000000
											}
										}
									}
								}
								JOINT left_middle_1
								{
									OFFSET 0.109398 -0.006328 -0.003981
									CHANNELS 3 Zrotation Yrotation Xrotation
									JOINT left_middle_2
									{
										OFFSET 0.026472 -0.015218 -0.004641
										CHANNELS 3 Zrotation Yrotation Xrotation
										JOINT left_middle_3
										{
											OFFSET 0.005022 -0.023347 -0.001911
											CHANNELS 3 Zrotation Yrotation Xrotation
											End Site
											{
												OFFSET 0.000000 0.000000 0.000000
											}
										}
									}
								}
								JOINT left_pinky_1
								{
									OFFSET 0.084047 -0.014539 -0.043750
									CHANNELS 3 Zrotation Yrotation Xrotation
									JOINT left_pinky_2
									{
										OFFSET 0.012124 -0.014448 -0.005375
										CHANNELS 3 Zrotation Yrotation Xrotation
										JOINT left_pinky_3
										{
											OFFSET 0.003798 -0.018853 0.000167
											CHANNELS 3 Zrotation Yrotation Xrotation
											End Site
											{
												OFFSET 0.000000 0.000000 0.000000
											}
										}
									}
								}
								JOINT left_ring_1
								{
									OFFSET 0.097444 -0.009268 -0.027345
									CHANNELS 3 Zrotation Yrotation Xrotation
									JOINT left_ring_2
									{
										OFFSET 0.023561 -0.016057 -0.001895
										CHANNELS 3 Zrotation Yrotation Xrotation
										JOINT left_ring_3
										{
											OFFSET 0.004257 -0.023548 0.000814
											CHANNELS 3 Zrotation Yrotation Xrotation
											End Site
											{
												OFFSET 0.000000 0.000000 0.000000
											}
										}
									}
								}
								JOINT left_thumb_1
								{
									OFFSET 0.040636 -0.017977 0.025611
									CHANNELS 3 Zrotation Yrotation Xrotation
									JOINT left_thumb_2
									{
										OFFSET 0.021637 -0.017639 0.011623
										CHANNELS 3 Zrotation Yrotation Xrotation
										JOINT left_thumb_3
										{
											OFFSET 0.024002 -0.008356 0.006548
											CHANNELS 3 Zrotation Yrotation Xrotation
											End Site
											{
												OFFSET 0.000000 0.000000 0.000000
											}
										}
									}
								}
							}
						}
					}
				}
				JOINT right_collar
				{
					OFFSET -0.047695 0.084339 -0.013400
					CHANNELS 3 Zrotation Yrotation Xrotation
					JOINT right_shoulder
					{
						OFFSET -0.102578 0.053524 -0.012669
						CHANNELS 3 Zrotation Yrotation Xrotation
						JOINT right_elbow
						{
							OFFSET -0.271150 -0.036492 -0.026467
							CHANNELS 3 Zrotation Yrotation Xrotation
							JOINT right_wrist
							{
								OFFSET -0.249267 -0.004533 -0.015325
								CHANNELS 3 Zrotation Yrotation Xrotation
								JOINT right_index_1
								{
									OFFSET -0.099881 -0.011783 0.019600
									CHANNELS 3 Zrotation Yrotation Xrotation
									JOINT right_index_2
									{
										OFFSET -0.030148 -0.011154 0.001151
										CHANNELS 3 Zrotation Yrotation Xrotation
										JOINT right_index_3
										{
											OFFSET -0.006505 -0.021577 -0.002432
											CHANNELS 3 Zrotation Yrotation Xrotation
											End Site
											{
												OFFSET 0.000000 0.000000 0.000000
											}
										}
									}
								}
								JOINT right_middle_1
								{
									OFFSET -0.107376 -0.009422 -0.003734
									CHANNELS 3 Zrotation Yrotation Xrotation
									JOINT right_middle_2
									{
										OFFSET -0.026472 -0.015218 -0.004641
										CHANNELS 3 Zrotation Yrotation Xrotation
										JOINT right_middle_3
										{
											OFFSET -0.005022 -0.023347 -0.001911
											CHANNELS 3 Zrotation Yrotation Xrotation
											End Site
											{
												OFFSET 0.000000 0.000000 0.000000
											}
										}
									}
								}
								JOINT right_pinky_1
								{
									OFFSET -0.082027 -0.017634 -0.043503
									CHANNELS 3 Zrotation Yrotation Xrotation
									JOINT right_pinky_2
									{
										OFFSET -0.012123 -0.014448 -0.005374
										CHANNELS 3 Zrotation Yrotation Xrotation
										JOINT right_pinky_3
										{
											OFFSET -0.003798 -0.018852 0.000167
											CHANNELS 3 Zrotation Yrotation Xrotation
											End Site
											{
												OFFSET 0.000000 0.000000 0.000000
											}
										}
									}
								}
								JOINT right_ring_1
								{
									OFFSET -0.095423 -0.012362 -0.027099
									CHANNELS 3 Zrotation Yrotation Xrotation
									JOINT right_ring_2
									{
										OFFSET -0.023561 -0.016057 -0.001895
										CHANNELS 3 Zrotation Yrotation Xrotation
										JOINT right_ring_3
										{
											OFFSET -0.004257 -0.023548 0.000816
											CHANNELS 3 Zrotation Yrotation Xrotation
											End Site
											{
												OFFSET 0.000000 0.000000 0.000000
											}
										}
									}
								}
								JOINT right_thumb_1
								{
									OFFSET -0.038613 -0.021074 0.025861
									CHANNELS 3 Zrotation Yrotation Xrotation
									JOINT right_thumb_2
									{
										OFFSET -0.021636 -0.017639 0.011623
										CHANNELS 3 Zrotation Yrotation Xrotation
										JOINT right_thumb_3
										{
											OFFSET -0.024004 -0.008353 0.006547
											CHANNELS 3 Zrotation Yrotation Xrotation
											End Site
											{
												OFFSET 0.000000 0.000000 0.000000
											}
										}
									}
								}
							}
						}
					}
				}
			}
		}
	}
}
MOTION
Frames: 4
Frame Time: 0.050000
0.114979 0.937233 -0.015251 1.260907 2.417124 -17.904649 -5.467871 4.224715 22.353873 -3.188069 0.748139 -6.447016 0.185526 1.267204 1.077723 0.000000 0.000000 0.000000 -10.498189 0.027039 1.710864 0.723640 0.736870 26.999371 -0.651909 -2.251097 1.540532 0.000000 0.000000 0.000000 -4.270524 -0.696790 11.377464 -9.758386 0.856731 -15.320928 9.943593 0.669761 30.044346 -3.687805 0.662153 0.452008 0.000000 0.000000 0.000000 1.054842 -3.531553 1.795710 -61.739433 2.600134 -12.422845 -89.484065 -64.693687 75.877267 7.835664 11.944620 -49.981255 22.698989 8.366360 7.487447 7.272880 -18.056488 -30.725875 0.000000 0.000000 0.000000 7.256368 -3.438146 -1.153335 0.601239 -11.955833 -26.674329 0.000000 0.000000 0.000000 7.683600 -22.929085 -31.665483 13.393027 -0.126312 -0.475451 0.000000 0.000000 0.000000 -6.991991 -16.649956 -8.353731 15.732660 -4.045137 -23.412234 0.000000 0.000000 0.000000 33.003017 11.816450 -5.003308 -13.817321 -1.104696 3.462328 0.000000 0.000000 0.000000 -5.749875 1.897114 1.184857 67.242935 1.007127 -7.003446 -93.633022 87.340580 -89.808149 7.074996 -10.780908 -40.314933 -4.343146 -16.715880 6.303389 5.955008 8.930698 -18.986728 0.000000 0.000000 0.000000 1.300313 -2.765107 1.619896 13.712609 10.847129 -17.484290 0.000000 0.000000 0.000000 -16.209068 7.675004 -13.411152 12.359989 -1.698640 4.605664 0.000000 0.000000 0.000000 2.879883 1.737306 -0.981068 8.684040 11.899999 -19.927621 0.000000 0.000000 0.000000 -15.523745 -19.234809 3.608319 -5.593249 2.230749 -1.659147 0.000000 0.000000 0.000000 
0.114979 0.937072 -0.015251 1.204570 2.311593 -17.888368 -5.404628 4.218712 22.352312 -3.206411 0.753007 -6.487964 0.243367 1.341339 1.030169 0.000000 0.000000 0.000000 -10.436856 0.031763 1.643503 0.745186 0.738382 27.031695 -0.643291 -2.220169 1.514511 0.000000 0.000000 0.000000 -4.124995 -0.697706 11.347327 -10.058902 0.965699 -15.351273 9.711192 -0.433882 29.703683 -3.756700 0.620921 0.858175 0.000000 0.000000 0.000000 1.059136 -2.664915 1.375486 -61.694639 3.403512 -12.309795 -89.340246 -64.560792 75.715049 7.197124 11.288831 -49.852579 23.577152 7.632770 7.440217 7.983849 -17.697717 -30.406418 0.000000 0.000000 0.000000 7.834741 -3.621487 -1.208667 2.540788 -10.830324 -25.958089 0.000000 0.000000 0.000000 8.239142 -22.560219 -31.559425 13.785049 -0.287462 -1.060115 0.000000 0.000000 0.000000 -6.655493 -16.136914 -8.260333 18.106910 -3.664831 -24.400123 0.000000 0.000000 0.000000 33.576667 11.871758 -5.084670 -14.550969 -0.504175 3.952003 0.000000 0.000000 0.000000 -6.059997 3.303499 1.904322 66.874599 2.043242 -6.881259 -68.857953 86.770512 -64.890233 7.556673 -6.566126 -47.959069 -2.414463 -15.751462 5.357375 10.850270 12.973120 -19.501254 0.000000 0.000000 0.000000 6.144358 0.093567 -0.549666 15.500855 13.711747 -19.277065 0.000000 0.000000 0.000000 -11.728641 9.300641 -16.578594 10.755882 -1.232279 3.456651 0.000000 0.000000 0.000000 8.720834 5.638254 -2.534664 7.194107 12.995505 -21.799789 0.000000 0.000000 0.000000 -18.127008 -18.122395 1.378302 -3.680135 1.287192 -0.529626 0.000000 0.000000 0.000000 
0.114979 0.937072 -0.015251 1.286671 2.240339 -18.313545 -5.523194 4.347721 22.886614 -3.064460 0.761770 -6.613505 0.239723 1.368748 1.072990 0.000000 0.000000 0.000000 -10.590017 0.012972 2.327328 0.756007 0.732043 26.613521 -0.581338 -2.046839 1.421641 0.000000 0.000000 0.000000 -4.220073 -0.719601 12.011203 -10.114308 0.930000 -15.536712 9.561070 -0.267110 29.693381 -3.316867 0.551575 0.730603 0.000000 0.000000 0.000000 1.513546 -2.523604 1.344371 -61.704988 3.371647 -12.320824 -89.476803 -64.259014 75.515128 7.428699 10.985939 -49.783099 24.325389 8.317522 8.100246 7.935906 -18.206705 -31.456076 0.000000 0.000000 0.000000 8.198511 -3.415978 -1.017520 2.611551 -10.823224 -25.977903 0.000000 0.000000 0.000000 8.470813 -22.388548 -31.473932 13.427970 -0.148554 -0.541928 0.000000 0.000000 0.000000 -6.380925 -15.920910 -8.251738 18.049742 -3.694956 -24.417451 0.000000 0.000000 0.000000 34.337120 11.411290 -5.514796 -14.854890 -0.146788 4.195577 0.000000 0.000000 0.000000 -6.046682 3.350425 1.918878 66.482898 2.716427 -6.508021 -39.203946 85.785008 -35.707480 5.722969 -2.577551 -56.222614 -2.151191 -14.471716 4.655526 11.082851 18.967632 -22.215933 0.000000 0.000000 0.000000 9.649884 3.601187 -2.128185 11.693810 15.660794 -23.081309 0.000000 0.000000 0.000000 -7.585729 12.714946 -20.275160 5.531777 -0.712311 2.284227 0.000000 0.000000 0.000000 12.899497 10.391580 -3.505974 -1.182242 11.489419 -24.957258 0.000000 0.000000 0.000000 -22.759065 -15.820764 -0.805405 0.650741 -0.943968 1.846166 0.000000 0.000000 0.000000 
0.114979 0.936911 -0.015251 1.280413 2.244860 -18.316877 -5.513491 4.346305 22.892425 -3.073313 0.762012 -6.615344 0.260464 1.366300 1.019191 0.000000 0.000000 0.000000 -10.624763 0.013493 2.328651 0.842337 0.706197 26.616136 -0.624054 -2.110160 1.388002 0.000000 0.000000 0.000000 -4.214118 -0.719916 12.015087 -10.108793 0.926173 -15.543752 9.456982 -0.315306 29.454471 -3.186872 0.473092 1.142443 0.000000 0.000000 0.000000 1.480009 -2.687300 1.417569 -61.467123 3.609589 -12.305139 -89.686118 -63.932414 75.337232 8.280136 10.917325 -50.369448 24.260648 8.391371 8.130710 10.066903 -18.303175 -32.414966 0.000000 0.000000 0.000000 8.309060 -2.603143 -0.443479 1.864746 -12.516244 -28.261808 0.000000 0.000000 0.000000 8.547416 -22.388139 -31.459963 13.136775 -0.120397 -0.434324 0.000000 0.000000 0.000000 -6.241439 -15.601266 -8.069665 16.187704 -4.399687 -24.662133 0.000000 0.000000 0.000000 33.845361 11.194546 -5.503245 -14.013742 0.437980 4.211476 0.000000 0.000000 0.000000 -6.238384 3.663702 2.070852 66.214427 3.825913 -5.970729 -21.086058 83.366138 -18.043874 2.598637 -1.588586 -63.825945 -4.117552 -14.092778 4.899394 8.921004 29.068469 -27.150241 0.000000 0.000000 0.000000 11.660583 5.960030 -2.693151 7.593004 17.934186 -27.560437 0.000000 0.000000 0.000000 -1.108157 18.003338 -23.052598 -1.031060 -0.229804 0.952999 0.000000 0.000000 0.000000 16.059955 15.260800 -3.753952 -5.140541 11.859002 -28.453962 0.000000 0.000000 0.000000 -28.975800 -13.813713 -1.582524 4.254119 -2.838209 4.088385 0.000000 0.000000 0.000000 
